#define icon_width 10
#define icon_height 10
static unsigned char icon_bits[] = {
   0x84, 0x00, 0x58, 0x00, 0x20, 0x00, 0xfc, 0x00, 0x02, 0x01, 0x7a, 0x01,
   0x7a, 0x01, 0x7a, 0x01, 0x02, 0x01, 0xfc, 0x00 };
