#define icon_width 10
#define icon_height 10
static unsigned char icon_bits[] = {
   0x7f, 0x00, 0x7f, 0x00, 0x41, 0x00, 0xf9, 0x03, 0xf9, 0x03, 0x09, 0x02,
   0x0f, 0x02, 0x08, 0x02, 0x08, 0x02, 0xf8, 0x03 };
