#define icon_width 9
#define icon_height 10
static unsigned char icon_bits[] = {
   0x10, 0x00, 0x30, 0x00, 0x70, 0x00, 0xd0, 0x00, 0x10, 0x00, 0x10, 0x00,
   0x1c, 0x00, 0x1e, 0x00, 0x1e, 0x00, 0x0c, 0x00 };
