#define icon_width 10
#define icon_height 10
static unsigned char icon_bits[] = {
   0xff, 0x01, 0x03, 0x01, 0x03, 0x03, 0x7b, 0x03, 0x03, 0x01, 0x03, 0x01,
   0x03, 0x01, 0x03, 0x01, 0x03, 0x01, 0xff, 0x01 };
