#define icon_width 9
#define icon_height 9
static unsigned char icon_bits[] = {
   0x38, 0x00, 0xee, 0x00, 0xee, 0x00, 0xef, 0x01, 0x8f, 0x01, 0xff, 0x01,
   0xfe, 0x00, 0xfe, 0x00, 0x38, 0x00 };
